<svg xmlns="http://www.w3.org/2000/svg" xml:space="preserve" width="1500" height="172" data-id="lg_P4OKqe5lGzK6bmi0P0" data-version="1"><g data-padding="20"><g transform="translate(10 3.055)scale(.96448)"><path fill="#010c80" stroke="transparent" d="M646.3 131.28h.76v1.52h-21.43v-1.52h.76q1.06 0 1.98-.92.91-.91 1.59-2.12.69-1.22.99-2.66.3-1.45.3-2.66V41.9q0-1.06-.3-2.43t-.99-2.59q-.68-1.21-1.59-2.05-.92-.83-1.98-.83h-.76v-1.52h26.45q15.2 0 23.48 5.92 8.29 5.93 8.29 17.48 0 5.78-1.9 10.11t-5.1 7.45q-3.19 3.12-7.52 5.02t-9.2 2.81l10.95 16.72q3.95 6.08 8.05 11.93 4.11 5.85 8.06 12.08 1.06 1.52 2.36 3.2 1.29 1.67 2.73 3.04 1.45 1.36 3.04 2.2 1.6.84 3.27.84v1.52h-6.54q-6.08 0-9.95-2.97-3.88-2.96-6.46-6.91-6.84-10.04-13.61-20.37-6.76-10.34-13.45-20.37-1.67-.15-3.57-.38t-3.57-.53v41.65q0 1.21.3 2.66.31 1.44.99 2.66.68 1.21 1.52 2.12.84.92 2.05.92m-2.58-93.64h-2.28v38.61h.76q1.21.15 3.87.23t6.62.08q3.19 0 6.76-.99t6.69-3.35q3.11-2.35 5.17-6.15 2.05-3.8 2.05-9.58 0-5.77-2.21-9.42-2.2-3.65-6.08-5.78-3.87-2.13-9.34-2.89-5.48-.76-12.01-.76m115.52 64.46h-52.75q.61 5.32 2.59 10.11 1.97 4.79 5.24 8.44 3.27 3.64 7.98 5.85 4.71 2.2 10.95 2.2 3.34 0 7.06-.99 3.73-.98 6.92-2.81 3.19-1.82 5.7-4.48t3.42-6.01h1.37v11.4q-.91 0-2.05.61t-2.66 1.52q-3.04 1.83-8.21 3.88t-13.68 2.05q-6.84 0-13-1.98-6.15-1.97-10.87-6.08-4.71-4.1-7.52-10.48-2.81-6.39-2.81-15.2 0-5.63 1.9-11.4 1.9-5.78 5.77-10.42 3.88-4.63 9.96-7.52t14.59-2.89q7.6 0 13.3 2.59 5.7 2.58 9.43 7.14 3.72 4.56 5.54 10.79 1.83 6.23 1.83 13.68m-30.71-29.18q-5.32 0-9.19 2.13-3.88 2.12-6.61 5.47-2.74 3.34-4.26 7.6-1.52 4.25-1.98 8.51h43.32q-.15-4.41-1.59-8.66-1.45-4.26-4.03-7.6-2.58-3.35-6.54-5.4-3.95-2.05-9.12-2.05m104.43 20.66v29.34q0 1.21.3 2.66.31 1.44.99 2.66.68 1.21 1.52 2.12.84.92 2.05.92v1.52h-19.61v-1.52q1.07 0 1.98-.92.91-.91 1.6-2.12.68-1.22.98-2.66.31-1.45.31-2.66V94.64q0-5.47-1.52-9.57-1.52-4.11-4.11-6.84-2.58-2.74-5.85-4.03t-6.61-1.29-6.61 1.37q-3.27 1.36-5.78 3.57-2.51 2.2-4.1 5.17-1.6 2.96-1.6 6.15v33.75q0 1.21.31 2.66.3 1.44.98 2.66.69 1.21 1.52 2.12.84.92 2.06.92v1.52h-19.76v-1.52q1.06 0 1.97-.92.91-.91 1.6-2.12.68-1.22.99-2.66.3-1.45.3-2.66V80.96q0-2.58-.76-4.94-.76-2.35-4.41-2.5v-1.37l15.2-4.87v8.36q1.07-1.21 2.74-2.66 1.67-1.44 4.03-2.73 2.35-1.29 5.47-2.13 3.11-.84 7.37-.84 7.14 0 12.16 2.44 5.02 2.43 8.21 6.3 3.19 3.88 4.63 8.52 1.45 4.63 1.45 9.04m51.67-19.46H867.6v36.64q0 3.95.16 7.14.15 3.19.76 5.32.6 2.13 1.82 3.27t3.34 1.14q3.2 0 6.01-3.04t3.57-7.3h1.37v11.1q-1.37 0-2.28.91-1.22 1.06-3.42 2.28-2.21 1.22-6.61 1.22-5.48 0-8.52-2.13t-4.4-5.63q-1.37-3.49-1.6-7.75-.23-4.25-.23-8.66V74.12h-8.51v-5.16h8.51V55.43q0-2.59-.68-4.79-.69-2.2-4.49-2.36v-1.52l15.2-4.86v27.06h17.03Zm74.63 58.68h-14.9v-6.69q-2.58 2.89-6.91 5.32t-10.87 2.43q-8.06 0-14.06-2.81t-9.96-7.37q-3.95-4.56-5.85-10.42-1.9-5.85-1.9-12.08 0-6.08 1.98-12.08 1.97-6.01 5.93-10.72 3.95-4.71 9.88-7.6 5.92-2.89 13.68-2.89 5.16 0 10.18 1.9t7.9 4.94V45.09q0-2.58-.76-4.86t-4.4-2.43v-1.52l15.2-4.72v91.36q0 1.21.3 2.66.3 1.44.91 2.66.61 1.21 1.52 2.12.91.92 2.13.92Zm-31.62-3.96q3.2 0 6.24-1.29t5.32-3.49q2.28-2.21 3.72-5.17 1.44-2.97 1.44-6.46V91.6q0-4.25-1.82-7.67t-4.56-5.85q-2.74-2.44-6-3.73-3.27-1.29-6.31-1.29-5.02 0-8.97 2.36-3.95 2.35-6.69 6.08-2.73 3.72-4.1 8.36-1.37 4.63-1.37 9.19 0 5.32 1.52 10.57 1.52 5.24 4.48 9.42 2.97 4.18 7.22 6.92 4.26 2.73 9.88 2.88m78.29 5.03q-7.6 0-13.68-2.51t-10.41-6.84-6.69-10.26q-2.35-5.93-2.35-12.92 0-7.45 2.58-13.6 2.59-6.16 7.15-10.57 4.56-4.4 10.79-6.84 6.23-2.43 13.53-2.43 7.29 0 13.37 2.36 6.08 2.35 10.49 6.61t6.84 10.11 2.43 12.84q0 6.54-2.2 12.69-2.21 6.16-6.54 10.87t-10.64 7.6-14.67 2.89m-.91-60.95q-5.47.3-9.65 2.66-4.18 2.35-6.99 6.08-2.81 3.72-4.26 8.43-1.44 4.72-1.44 9.58 0 5.62 1.75 10.87 1.74 5.24 5.01 9.35 3.27 4.1 7.83 6.53t10.18 2.43q5.63 0 9.96-2.43t7.22-6.31q2.89-3.87 4.33-8.74 1.45-4.86 1.45-9.72 0-5.02-1.52-10.11t-4.72-9.27q-3.19-4.18-7.98-6.77-4.78-2.58-11.17-2.58"/><rect width="429.4" height="171.76" x="152.989" y="-400.57" fill="none" rx="0" ry="0" transform="translate(466.3 400.69)"/><path fill="#010c80" d="m597.862 101.361-11.65-11.635h4.594a1.44 1.44 0 0 0 .994-.403 4.536 4.536 0 0 0 0-6.581l-48.01-46.008a4.896 4.896 0 0 0-6.696 0l-47.98 46.008a4.52 4.52 0 0 0 0 6.58 1.44 1.44 0 0 0 1.007.404h8.208v38.635a5.616 5.616 0 0 0 5.616 5.616h72.98a5.616 5.616 0 0 0 5.615-5.616v-9.648l15.308-15.307a1.44 1.44 0 0 0 0-2.045m-18.173 27a2.736 2.736 0 0 1-2.736 2.736h-72.994a2.736 2.736 0 0 1-2.736-2.736V88.934a1.44 1.44 0 0 0 .159-.634 1.44 1.44 0 0 0-1.44-1.44h-9.159a1.64 1.64 0 0 1 .303-2.03l48.024-46.008a1.967 1.967 0 0 1 2.707 0l47.995 45.994q.518.518.533 1.21 0 .431-.216.82h-6.768l-8.381-8.366a1.44 1.44 0 0 0-1.008-.432h-19.584a1.44 1.44 0 0 0-1.44 1.44v7.344h-34.085a1.44 1.44 0 0 0-1.44 1.44q.015.187.072.345a1.4 1.4 0 0 0-.1.461v21.5a3.37 3.37 0 0 0 3.369 3.354h39.384a3.37 3.37 0 0 0 3.37-3.355v-.662l12.96 12.845a1.44 1.44 0 0 0 2.03 0l1.18-1.167Zm.432-11.275h-.015l-2.62 2.62-21.658-21.455V80.928h17.54l8.366 8.366 13.09 13.104Z"/><path fill="#010c80" d="M563.67 83.548a5.17 5.17 0 1 0 0 10.325 5.17 5.17 0 1 0 0-10.339m0 7.43a2.29 2.29 0 1 1-.36-4.564 2.29 2.29 0 0 1 .36 4.564"/></g><path fill="transparent" stroke="transparent" d="M468.5 0h563v172h-563z"/></g></svg>