<?xml version="1.0" standalone="no"?>
<!DOCTYPE svg PUBLIC "-//W3C//DTD SVG 20010904//EN"
 "http://www.w3.org/TR/2001/REC-SVG-20010904/DTD/svg10.dtd">
<svg version="1.0" xmlns="http://www.w3.org/2000/svg"
 width="335.000000pt" height="335.000000pt" viewBox="0 0 335.000000 335.000000"
 preserveAspectRatio="xMidYMid meet">
<metadata>
Created by potrace 1.16, written by Peter Selinger 2001-2019
</metadata>
<g transform="translate(0.000000,335.000000) scale(0.100000,-0.100000)"
fill="#000000" stroke="none">
<path d="M1609 2972 c-39 -25 -1240 -1177 -1266 -1214 -30 -41 -31 -109 -2
-149 l20 -29 115 0 114 0 0 -514 0 -513 23 -33 c12 -18 35 -43 50 -54 28 -21
30 -21 1012 -21 978 0 984 0 1011 21 64 47 69 62 72 223 l3 148 200 199 c168
168 199 203 199 228 0 24 -24 54 -142 173 l-142 143 56 0 c74 0 98 26 98 107
0 55 -1 56 -67 122 -197 194 -1208 1158 -1227 1168 -31 18 -97 15 -127 -5z
m716 -676 c344 -329 625 -604 625 -612 0 -11 -19 -14 -82 -14 l-82 0 -116 115
-117 115 -266 0 c-228 0 -268 -2 -281 -16 -12 -12 -16 -38 -16 -115 l0 -99
-443 0 c-331 0 -446 -3 -455 -12 -9 -9 -12 -95 -12 -326 l0 -314 29 -29 29
-29 537 0 537 0 29 29 c16 16 29 37 29 47 0 10 67 -49 170 -150 93 -91 175
-166 182 -166 8 0 24 7 36 16 l22 15 0 -83 c0 -59 -5 -90 -16 -106 l-15 -22
-974 0 -974 0 -16 23 c-14 19 -15 85 -15 555 1 293 -2 537 -5 542 -4 6 -61 10
-136 10 -104 0 -129 3 -129 14 0 8 282 284 628 615 495 475 632 601 650 599
14 -2 252 -223 647 -602z m462 -758 l273 -273 -217 -217 -218 -218 -277 277
-278 278 0 212 0 213 222 0 223 0 272 -272z"/>
<path d="M2215 1746 c-16 -7 -41 -26 -55 -41 -21 -22 -25 -36 -25 -90 0 -57 3
-67 30 -95 90 -94 245 -34 245 97 0 44 -28 94 -64 118 -35 23 -95 28 -131 11z"/>
</g>
</svg>
